<?xml version="1.0" encoding="UTF-8" standalone="no"?>
<!-- Created with Inkscape (http://www.inkscape.org/) -->

<svg
   xmlns:dc="http://purl.org/dc/elements/1.1/"
   xmlns:cc="http://creativecommons.org/ns#"
   xmlns:rdf="http://www.w3.org/1999/02/22-rdf-syntax-ns#"
   xmlns:svg="http://www.w3.org/2000/svg"
   xmlns="http://www.w3.org/2000/svg"
   xmlns:sodipodi="http://sodipodi.sourceforge.net/DTD/sodipodi-0.dtd"
   xmlns:inkscape="http://www.inkscape.org/namespaces/inkscape"
   version="1.1"
   id="svg2"
   xml:space="preserve"
   width="1000"
   height="666.66669"
   viewBox="0 0 1000 666.66669"
   sodipodi:docname="2480286_2.svg"
   inkscape:version="0.92.3 (2405546, 2018-03-11)"><metadata
     id="metadata8"><rdf:RDF><cc:Work
         rdf:about=""><dc:format>image/svg+xml</dc:format><dc:type
           rdf:resource="http://purl.org/dc/dcmitype/StillImage" /><dc:title></dc:title></cc:Work></rdf:RDF></metadata><defs
     id="defs6"><clipPath
       clipPathUnits="userSpaceOnUse"
       id="clipPath96"><path
         d="m 5155.99,1491.52 c 0,-331.85 -269.02,-600.872 -600.88,-600.872 -331.86,0 -600.88,269.022 -600.88,600.872 0,331.87 269.02,600.89 600.88,600.89 331.86,0 600.88,-269.02 600.88,-600.89"
         id="path94"
         inkscape:connector-curvature="0" /></clipPath></defs><sodipodi:namedview
     pagecolor="#ffffff"
     bordercolor="#666666"
     borderopacity="1"
     objecttolerance="10"
     gridtolerance="10"
     guidetolerance="10"
     inkscape:pageopacity="0"
     inkscape:pageshadow="2"
     inkscape:window-width="1366"
     inkscape:window-height="717"
     id="namedview4"
     showgrid="false"
     showborder="false"
     inkscape:zoom="0.70799998"
     inkscape:cx="44.503241"
     inkscape:cy="129.26532"
     inkscape:window-x="0"
     inkscape:window-y="0"
     inkscape:window-maximized="1"
     inkscape:current-layer="g10" /><g
     id="g10"
     inkscape:groupmode="layer"
     inkscape:label="ink_ext_XXXXXX"
     transform="matrix(1.3333333,0,0,-1.3333333,0,666.66667)"><path
       inkscape:connector-curvature="0"
       id="path32"
       style="fill:#f8f7f7;fill-opacity:1;fill-rule:nonzero;stroke:none;stroke-width:0.1"
       d="m 127.603,413.409 v -0.551 h 130.081 c 0.158,0 0.309,0.067 0.413,0.185 0.105,0.118 0.154,0.276 0.135,0.433 -0.012,0.122 -0.243,1.554 -2.295,3.439 -2.051,1.887 -5.901,4.241 -13.183,6.324 -2.545,0.728 -4.971,1.009 -7.316,1.009 -3.957,-10e-4 -7.681,-0.796 -11.412,-1.577 -3.732,-0.783 -7.472,-1.555 -11.478,-1.554 -3.382,10e-4 -6.956,0.545 -10.904,2.105 -6.462,2.553 -11.736,5.561 -17.109,7.951 -5.371,2.389 -10.853,4.153 -17.653,4.151 -3.48,0 -7.301,-0.46 -11.628,-1.522 -10.632,-2.608 -17.672,-7.633 -22.044,-12.012 -4.375,-4.379 -6.088,-8.108 -6.109,-8.151 -0.078,-0.171 -0.064,-0.369 0.038,-0.528 0.101,-0.158 0.276,-0.253 0.464,-0.253 v 0.551 l 0.501,-0.229 0.016,0.033 c 0.187,0.391 1.997,4.037 6.276,8.199 4.282,4.161 11.026,8.841 21.121,11.319 4.253,1.044 7.983,1.49 11.365,1.49 6.606,-10e-4 11.899,-1.698 17.204,-4.056 5.303,-2.356 10.606,-5.38 17.153,-7.969 4.078,-1.612 7.808,-2.183 11.309,-2.182 4.149,0 7.972,0.795 11.705,1.577 3.734,0.784 7.378,1.555 11.185,1.554 2.257,0 4.573,-0.269 7.013,-0.966 7.171,-2.05 10.862,-4.346 12.739,-6.075 0.939,-0.866 1.427,-1.588 1.681,-2.077 0.126,-0.245 0.195,-0.431 0.23,-0.548 l 0.033,-0.124 0.004,-0.021 0.19,0.032 -0.191,-0.023 10e-4,-0.009 0.19,0.032 -0.191,-0.023 0.547,0.066 v 0.552 H 127.603 v -0.552 l 0.501,-0.229 -0.501,0.229" /><path
       inkscape:connector-curvature="0"
       id="path16"
       style="fill:#dbbcb9;fill-opacity:1;fill-rule:nonzero;stroke:none;stroke-width:0.1"
       d="m -68.663062,22.170701 c 5.284,-0.605 10.118,-1.722 14.55,-3.206 l -0.004,0.008 0.192,-0.066 c 0.175,-0.059 0.348,-0.12 0.522,-0.181 26.405003,-9.4212002 38.531003,-7.653 48.9130025,-4.465 28.0360005,8.611 44.6600005,45.681 90.0670005,38.505 19.259999,-3.043 34.755999,-7.18 46.832999,-15.6 l -0.016,0.036 0.252,-0.201 c 1.733,-1.215 3.421,-2.451 5.017,-3.724 23.618,-15.416 47.144,4.68 53.9,9.231 0.496,0.36 1.013,3.218 1.516,3.575 0.271,0.201 0.421,0.32 0.421,0.32 l 0.002,-0.025 c 29.592,20.857 76.66,41.984 122.035,36.797 77.965,-8.912 109.341,-97.3331 109.341,-97.3331 h -254.077 -20.735 -161.525999 -35.641003 -110.614798 c 9.1,20.9089998 45.5018,41.3061 89.052798,36.3291"
       inkscape:export-xdpi="96"
       inkscape:export-ydpi="96" /><path
       inkscape:connector-curvature="0"
       id="path26"
       style="fill:#ffffff;fill-opacity:1;fill-rule:nonzero;stroke:none;stroke-width:0.1"
       d="m -67.678951,265.37313 h -0.544 c 0,-1.416 -0.565,-2.692 -1.478,-3.618 -0.914,-0.926 -2.168,-1.495 -3.558,-1.495 -1.39,0 -2.643,0.569 -3.557,1.495 -0.913,0.926 -1.477,2.202 -1.478,3.618 0.001,1.416 0.565,2.693 1.478,3.619 0.914,0.926 2.167,1.495 3.557,1.495 1.39,0 2.644,-0.569 3.558,-1.495 0.913,-0.926 1.478,-2.203 1.478,-3.619 h 0.544 0.545 c 0,1.709 -0.685,3.262 -1.792,4.384 -1.105,1.122 -2.641,1.819 -4.333,1.819 -1.691,0 -3.227,-0.697 -4.332,-1.819 -1.107,-1.122 -1.792,-2.675 -1.791,-4.384 -0.001,-1.708 0.684,-3.261 1.791,-4.382 1.105,-1.123 2.641,-1.82 4.332,-1.82 1.692,0 3.228,0.697 4.333,1.82 1.107,1.121 1.792,2.674 1.792,4.382 h -0.545"
       inkscape:export-xdpi="96"
       inkscape:export-ydpi="96" /><path
       inkscape:connector-curvature="0"
       id="path30"
       style="fill:#ffffff;fill-opacity:1;fill-rule:nonzero;stroke:none;stroke-width:0.1"
       d="m 388.975,396.882 h -0.544 c 0,-1.405 -1.122,-2.532 -2.492,-2.534 -1.369,0.002 -2.49,1.129 -2.491,2.534 0.001,1.405 1.122,2.532 2.491,2.534 1.37,-0.002 2.492,-1.129 2.492,-2.534 h 0.544 0.545 c -0.004,1.995 -1.597,3.622 -3.581,3.623 -1.983,-10e-4 -3.576,-1.628 -3.579,-3.623 0.003,-1.995 1.596,-3.622 3.579,-3.623 1.984,10e-4 3.577,1.628 3.581,3.623 h -0.545" /><path
       inkscape:connector-curvature="0"
       id="path66"
       style="fill:#ffffff;fill-opacity:1;fill-rule:nonzero;stroke:none;stroke-width:0.1"
       d="m 292.121,198.604 12.067,-12.437 1.448,1.405 -12.067,12.437"
       inkscape:export-xdpi="96"
       inkscape:export-ydpi="96" /><g
       id="g1053"
       transform="matrix(1,0,-0.2408293,1,-160.83142,-92.595)"
       inkscape:export-xdpi="96"
       inkscape:export-ydpi="96"><g
         transform="rotate(-137.45414,384.1955,183.3425)"
         id="g905"><path
           inkscape:connector-curvature="0"
           id="path152"
           style="fill:#f2578d;fill-opacity:1;fill-rule:nonzero;stroke:none;stroke-width:0.1"
           d="m 266.681,244.412 -13.331,-1.044 2.384,13.393 13.925,-1.173 -2.978,-11.176" /><g
           id="g898"><path
             d="m 277.902,245.06 c -3.92,-3.359 -9.82,-2.904 -13.179,1.016 -3.359,3.92 -2.904,9.82 1.016,13.178 3.92,3.359 9.82,2.904 13.179,-1.015 3.358,-3.92 2.904,-9.82 -1.016,-13.179"
             style="fill:#f2578d;fill-opacity:1;fill-rule:nonzero;stroke:none;stroke-width:0.1"
             id="path154"
             inkscape:connector-curvature="0" /><path
             d="m 272.303,261.485 c 0,0 -1.696,3.91 -5.654,1.014 -3.958,-2.896 -7.469,-8.825 -1.926,-16.423 l 7.58,15.409"
             style="fill:#f2578d;fill-opacity:1;fill-rule:nonzero;stroke:none;stroke-width:0.1"
             id="path156"
             inkscape:connector-curvature="0" /><path
             d="m 224.81,255.091 38.773,4.555 -0.123,-17.708 -36.059,-4.646 c -5.688,-1.103 -10.922,3.378 -10.71,9.169 0.165,4.503 3.634,8.19 8.119,8.63"
             style="fill:#f1ba27;fill-opacity:1;fill-rule:nonzero;stroke:none;stroke-width:0.1"
             id="path164"
             inkscape:connector-curvature="0" /></g></g><path
         d="m 533.93984,280.167 17.61,-27.865 c 2.492,-4.467 1.104,-10.101 -3.177,-12.899 -4.491,-2.934 -10.508,-1.685 -13.461,2.793 l -19.413,26.77 c -2.822,4.28 -2.244,9.952 1.381,13.576 5.066,5.065 13.57,3.881 17.06,-2.375"
         style="fill:#f1ba27;fill-opacity:1;fill-rule:nonzero;stroke:none;stroke-width:0.1"
         id="path160"
         inkscape:connector-curvature="0" /><path
         d="m 528.42884,251.017 1.039,15.254 3.783,-21.912 z"
         style="fill:#e1a822;fill-opacity:1;fill-rule:nonzero;stroke:none;stroke-width:0.1"
         id="path162"
         inkscape:connector-curvature="0" /></g><g
       id="g990"
       transform="translate(-4.494323,-110.85997)"
       inkscape:export-xdpi="96"
       inkscape:export-ydpi="96"><rect
         transform="scale(1,-1)"
         y="-324.97729"
         x="33.887089"
         height="205.12869"
         width="232.77608"
         id="rect967"
         style="opacity:0.29199997;fill:#0000ff;stroke:#ffff00;stroke-width:0.52875;stroke-miterlimit:4;stroke-dasharray:1.05750001, 0.52875;stroke-dashoffset:0;stroke-opacity:1" /><path
         d="m 93.5988,228.481 h -0.5441 c -4e-4,-2.085 -0.8324,-3.967 -2.1781,-5.332 -1.3465,-1.364 -3.1985,-2.205 -5.2485,-2.205 -2.05,0 -3.9019,0.841 -5.2484,2.205 -1.3453,1.365 -2.1777,3.247 -2.1777,5.332 0,2.086 0.8324,3.969 2.1777,5.334 1.3465,1.364 3.1984,2.205 5.2484,2.205 2.05,0 3.902,-0.841 5.2485,-2.205 1.3457,-1.365 2.1777,-3.248 2.1781,-5.334 h 0.5441 0.5446 c 0,2.379 -0.9524,4.538 -2.4914,6.098 -1.5387,1.561 -3.6719,2.53 -6.0239,2.53 -2.3515,0 -4.4851,-0.969 -6.0234,-2.53 -1.5395,-1.56 -2.4918,-3.719 -2.4914,-6.098 -4e-4,-2.378 0.9519,-4.537 2.4914,-6.097 1.5383,-1.561 3.6719,-2.529 6.0234,-2.529 2.352,0 4.4852,0.968 6.0239,2.529 1.539,1.56 2.4914,3.719 2.4914,6.097 h -0.5446"
         style="fill:#ffffff;fill-opacity:1;fill-rule:nonzero;stroke:none;stroke-width:0.1"
         id="path28"
         inkscape:connector-curvature="0" /><path
         d="M 50.366273,127.33914 H 249.30812 V 304.54037 H 50.366273 Z"
         style="fill:#ffffff;fill-opacity:1;fill-rule:nonzero;stroke:none;stroke-width:0.08189375"
         id="path38"
         inkscape:connector-curvature="0" /><g
         id="g941"><path
           inkscape:connector-curvature="0"
           id="path60"
           style="fill:#ebd1d1;fill-opacity:1;fill-rule:nonzero;stroke:none;stroke-width:0.1"
           d="m 184.68825,190.80518 v -1.106 h 44.63 v 45.736 h -45.736 v -45.736 h 1.106 v 1.106 h 1.107 v 42.417 h 41.31 v -41.31 h -42.417 v -1.107 h 1.107 -1.107" /><g
           id="g922"
           transform="translate(-207.48791,17.977292)"><path
             d="M 470.279,343.122 V 307 H 241.375 v 36.122 c 0,7.175 5.818,12.993 12.993,12.993 h 202.918 c 7.176,0 12.993,-5.818 12.993,-12.993"
             style="fill:#5645a5;fill-opacity:1;fill-rule:nonzero;stroke:none;stroke-width:0.1"
             id="path40"
             inkscape:connector-curvature="0" /><path
             d="m 424.035,333.686 c 0,-5.947 4.82,-10.768 10.766,-10.768 5.948,0 10.768,4.821 10.768,10.768 0,5.946 -4.82,10.767 -10.768,10.767 -5.946,0 -10.766,-4.821 -10.766,-10.767"
             style="fill:#394084;fill-opacity:1;fill-rule:nonzero;stroke:none;stroke-width:0.1"
             id="path42"
             inkscape:connector-curvature="0" /><path
             d="m 434.801,329.642 v 0 c 3.41,0 6.172,2.763 6.172,6.171 v 27.877 c 0,3.408 -2.762,6.171 -6.172,6.171 -3.408,0 -6.17,-2.763 -6.17,-6.171 v -27.877 c 0,-3.408 2.762,-6.171 6.17,-6.171"
             style="fill:#f1b826;fill-opacity:1;fill-rule:nonzero;stroke:none;stroke-width:0.1"
             id="path44"
             inkscape:connector-curvature="0" /><path
             d="m 348.036,333.686 c 0,-5.947 4.821,-10.768 10.767,-10.768 5.947,0 10.768,4.821 10.768,10.768 0,5.946 -4.821,10.767 -10.768,10.767 -5.946,0 -10.767,-4.821 -10.767,-10.767"
             style="fill:#394084;fill-opacity:1;fill-rule:nonzero;stroke:none;stroke-width:0.1"
             id="path46"
             inkscape:connector-curvature="0" /><path
             d="m 358.803,329.642 v 0 c 3.409,0 6.172,2.763 6.172,6.171 v 27.877 c 0,3.408 -2.763,6.171 -6.172,6.171 -3.408,0 -6.171,-2.763 -6.171,-6.171 v -27.877 c 0,-3.408 2.763,-6.171 6.171,-6.171"
             style="fill:#f1b826;fill-opacity:1;fill-rule:nonzero;stroke:none;stroke-width:0.1"
             id="path48"
             inkscape:connector-curvature="0" /><path
             d="m 272.037,333.686 c 0,-5.947 4.821,-10.768 10.768,-10.768 5.947,0 10.767,4.821 10.767,10.768 0,5.946 -4.82,10.767 -10.767,10.767 -5.947,0 -10.768,-4.821 -10.768,-10.767"
             style="fill:#394084;fill-opacity:1;fill-rule:nonzero;stroke:none;stroke-width:0.1"
             id="path50"
             inkscape:connector-curvature="0" /><path
             d="m 282.805,329.642 v 0 c 3.408,0 6.171,2.763 6.171,6.171 v 27.877 c 0,3.408 -2.763,6.171 -6.171,6.171 -3.408,0 -6.171,-2.763 -6.171,-6.171 v -27.877 c 0,-3.408 2.763,-6.171 6.171,-6.171"
             style="fill:#f1b826;fill-opacity:1;fill-rule:nonzero;stroke:none;stroke-width:0.1"
             id="path52"
             inkscape:connector-curvature="0" /><path
             d="m 392.929,226.573 v -1.106 h 44.63 v 45.736 h -45.736 v -45.736 h 1.106 v 1.106 h 1.107 v 42.417 h 41.31 v -41.31 h -42.417 v -1.107 h 1.107 -1.107"
             style="fill:#ebd1d1;fill-opacity:1;fill-rule:nonzero;stroke:none;stroke-width:0.1"
             id="path54"
             inkscape:connector-curvature="0" /><path
             d="m 335.023,226.573 v -1.106 h 44.63 v 45.736 h -45.736 v -45.736 h 1.106 v 1.106 h 1.107 v 42.417 h 41.31 v -41.31 h -42.417 v -1.107 h 1.107 -1.107"
             style="fill:#ebd1d1;fill-opacity:1;fill-rule:nonzero;stroke:none;stroke-width:0.1"
             id="path56"
             inkscape:connector-curvature="0" /><path
             d="m 277.117,226.573 v -1.106 h 44.63 v 45.736 h -45.736 v -45.736 h 1.106 v 1.106 h 1.107 v 42.417 h 41.31 v -41.31 h -42.417 v -1.107 h 1.107 -1.107"
             style="fill:#ebd1d1;fill-opacity:1;fill-rule:nonzero;stroke:none;stroke-width:0.1"
             id="path58"
             inkscape:connector-curvature="0" /><path
             d="m 335.023,171.326 v -1.106 h 44.63 v 45.736 H 333.917 V 170.22 h 1.106 v 1.106 h 1.107 v 42.417 h 41.31 v -41.31 h -42.417 v -1.107 h 1.107 -1.107"
             style="fill:#ebd1d1;fill-opacity:1;fill-rule:nonzero;stroke:none;stroke-width:0.1"
             id="path62"
             inkscape:connector-curvature="0" /><path
             d="M 277.117,171.326 H 320.64 V 214.85 H 277.117 V 171.326"
             style="fill:#f35f92;fill-opacity:1;fill-rule:nonzero;stroke:none;stroke-width:0.1"
             id="path64"
             inkscape:connector-curvature="0" /><path
             d="m 304.188,200.009 -12.067,-12.437 1.448,-1.405 12.067,12.437"
             style="fill:#ffffff;fill-opacity:1;fill-rule:nonzero;stroke:none;stroke-width:0.1"
             id="path68"
             inkscape:connector-curvature="0" /><path
             d="m 335.023,116.079 v -1.106 h 44.63 v 45.736 h -45.736 v -45.736 h 1.106 v 1.106 h 1.107 v 42.417 h 41.31 v -41.31 h -42.417 v -1.107 h 1.107 -1.107"
             style="fill:#ebd1d1;fill-opacity:1;fill-rule:nonzero;stroke:none;stroke-width:0.1"
             id="path72"
             inkscape:connector-curvature="0" /><path
             d="m 277.117,116.079 v -1.106 h 44.63 v 45.736 h -45.736 v -45.736 h 1.106 v 1.106 h 1.107 v 42.417 h 41.31 v -41.31 h -42.417 v -1.107 h 1.107 -1.107"
             style="fill:#ebd1d1;fill-opacity:1;fill-rule:nonzero;stroke:none;stroke-width:0.1"
             id="path74"
             inkscape:connector-curvature="0" /></g></g></g><g
       id="g965"
       transform="translate(-504.00906,-90.515299)"
       inkscape:export-xdpi="96"
       inkscape:export-ydpi="96"><path
         d="m 392.929,116.079 v -1.106 h 44.63 v 45.736 h -45.736 v -45.736 h 1.106 v 1.106 h 1.107 v 42.417 h 41.31 v -41.31 h -42.417 v -1.107 h 1.107 -1.107"
         style="fill:#ebd1d1;fill-opacity:1;fill-rule:nonzero;stroke:none;stroke-width:0.1"
         id="path70"
         inkscape:connector-curvature="0" /><path
         d="m 466.351,214.731 h -21.18 v 13.949 h 21.18 v -13.949"
         style="fill:#f7911e;fill-opacity:1;fill-rule:nonzero;stroke:none;stroke-width:0.1"
         id="path76"
         inkscape:connector-curvature="0" /><path
         d="m 469.613,225.062 h -27.705 c -3.154,0 -5.712,2.558 -5.712,5.712 0,3.156 2.558,5.713 5.712,5.713 h 27.705 c 3.155,0 5.713,-2.557 5.713,-5.713 0,-3.154 -2.558,-5.712 -5.713,-5.712"
         style="fill:#f1b826;fill-opacity:1;fill-rule:nonzero;stroke:none;stroke-width:0.1"
         id="path78"
         inkscape:connector-curvature="0" /><path
         d="m 412.827,199.094 -11.942,-11.942 -8.422,8.423 11.941,11.942 8.423,-8.423"
         style="fill:#f7911e;fill-opacity:1;fill-rule:nonzero;stroke:none;stroke-width:0.1"
         id="path80"
         inkscape:connector-curvature="0" /><path
         d="m 408.17,208.011 -16.682,-16.683 c -1.682,-1.681 -4.407,-1.681 -6.089,0 -1.681,1.682 -1.681,4.407 0,6.089 l 16.683,16.682 c 1.68,1.681 4.407,1.681 6.088,0 1.681,-1.681 1.681,-4.408 0,-6.088"
         style="fill:#f1b826;fill-opacity:1;fill-rule:nonzero;stroke:none;stroke-width:0.1"
         id="path82"
         inkscape:connector-curvature="0" /><path
         d="m 527.1,149.152 c 0,-39.537 -32.051,-71.5891 -71.589,-71.5891 -39.538,0 -71.589,32.0521 -71.589,71.5891 0,39.538 32.051,71.589 71.589,71.589 39.538,0 71.589,-32.051 71.589,-71.589"
         style="fill:#f04f84;fill-opacity:1;fill-rule:nonzero;stroke:none;stroke-width:0.1"
         id="path84"
         inkscape:connector-curvature="0" /><path
         d="m 522.6,149.152 c 0,-37.41 -30.327,-67.7372 -67.738,-67.7372 -37.411,0 -67.738,30.3272 -67.738,67.7372 0,37.411 30.327,67.739 67.738,67.739 37.411,0 67.738,-30.328 67.738,-67.739"
         style="fill:#f35f92;fill-opacity:1;fill-rule:nonzero;stroke:none;stroke-width:0.1"
         id="path86"
         inkscape:connector-curvature="0" /><path
         d="m 515.599,149.152 c 0,-33.185 -26.902,-60.0872 -60.088,-60.0872 -33.186,0 -60.088,26.9022 -60.088,60.0872 0,33.187 26.902,60.089 60.088,60.089 33.186,0 60.088,-26.902 60.088,-60.089"
         style="fill:#f2f0f0;fill-opacity:1;fill-rule:nonzero;stroke:none;stroke-width:0.1"
         id="path88"
         inkscape:connector-curvature="0" /><g
         transform="scale(0.1)"
         id="g90"><g
           id="g92"
           clip-path="url(#clipPath96)"><path
             d="m 4591.57,891.73 -568.04,880.21 c 76.06,143.89 208.82,253.16 368.53,298.09 l 656.91,-920.88 C 4946.95,1002.27 4781.1,903.07 4591.57,891.73"
             style="fill:#fbfbfb;fill-opacity:1;fill-rule:nonzero;stroke:none"
             id="path98"
             inkscape:connector-curvature="0" /><path
             d="m 5088.28,1214.14 -566.21,877.38 c 10.93,0.59 21.96,0.89 33.04,0.89 22.57,0 44.82,-1.24 66.74,-3.66 l 519.74,-728.59 c -11.48,-51.47 -29.56,-100.46 -53.31,-146.02"
             style="fill:#fbfbfb;fill-opacity:1;fill-rule:nonzero;stroke:none"
             id="path100"
             inkscape:connector-curvature="0" /></g></g><path
         d="m 455.81,195.701 c -0.835,0 -1.511,0.677 -1.511,1.512 v 3.548 c 0,0.835 0.676,1.511 1.511,1.511 0.835,0 1.512,-0.676 1.512,-1.511 v -3.548 c 0,-0.835 -0.677,-1.512 -1.512,-1.512"
         style="fill:#5545a5;fill-opacity:1;fill-rule:nonzero;stroke:none;stroke-width:0.1"
         id="path102"
         inkscape:connector-curvature="0" /><path
         d="m 455.81,95.3051 c -0.835,0 -1.511,0.6758 -1.511,1.5109 v 3.549 c 0,0.835 0.676,1.512 1.511,1.512 0.835,0 1.512,-0.677 1.512,-1.512 v -3.549 c 0,-0.8351 -0.677,-1.5109 -1.512,-1.5109"
         style="fill:#5545a5;fill-opacity:1;fill-rule:nonzero;stroke:none;stroke-width:0.1"
         id="path104"
         inkscape:connector-curvature="0" /><path
         d="m 421.57,181.518 c -0.387,0 -0.773,0.147 -1.069,0.443 l -2.51,2.509 c -0.59,0.59 -0.59,1.548 0,2.138 0.591,0.591 1.547,0.591 2.138,0 l 2.509,-2.509 c 0.591,-0.59 0.591,-1.548 0,-2.138 -0.295,-0.296 -0.681,-0.443 -1.068,-0.443"
         style="fill:#5545a5;fill-opacity:1;fill-rule:nonzero;stroke:none;stroke-width:0.1"
         id="path106"
         inkscape:connector-curvature="0" /><path
         d="m 492.561,110.526 c -0.386,0 -0.773,0.148 -1.069,0.444 l -2.51,2.509 c -0.59,0.59 -0.59,1.548 0,2.138 0.591,0.591 1.547,0.591 2.138,0 l 2.51,-2.51 c 0.59,-0.589 0.59,-1.547 0,-2.137 -0.295,-0.296 -0.682,-0.444 -1.069,-0.444"
         style="fill:#5545a5;fill-opacity:1;fill-rule:nonzero;stroke:none;stroke-width:0.1"
         id="path108"
         inkscape:connector-curvature="0" /><path
         d="m 419.06,110.526 c -0.386,0 -0.773,0.148 -1.069,0.444 -0.59,0.59 -0.59,1.548 0,2.137 l 2.51,2.51 c 0.591,0.591 1.547,0.591 2.137,0 0.591,-0.59 0.591,-1.548 0,-2.138 l -2.509,-2.509 c -0.295,-0.296 -0.682,-0.444 -1.069,-0.444"
         style="fill:#5545a5;fill-opacity:1;fill-rule:nonzero;stroke:none;stroke-width:0.1"
         id="path110"
         inkscape:connector-curvature="0" /><path
         d="m 490.051,181.518 c -0.386,0 -0.773,0.147 -1.069,0.443 -0.59,0.59 -0.59,1.548 0,2.138 l 2.51,2.509 c 0.591,0.591 1.547,0.591 2.138,0 0.59,-0.59 0.59,-1.548 0,-2.138 l -2.51,-2.509 c -0.295,-0.296 -0.682,-0.443 -1.069,-0.443"
         style="fill:#5545a5;fill-opacity:1;fill-rule:nonzero;stroke:none;stroke-width:0.1"
         id="path112"
         inkscape:connector-curvature="0" /><path
         d="m 407.386,147.277 h -3.547 c -0.835,0 -1.512,0.677 -1.512,1.512 0,0.835 0.677,1.511 1.512,1.511 h 3.547 c 0.835,0 1.512,-0.676 1.512,-1.511 0,-0.835 -0.677,-1.512 -1.512,-1.512"
         style="fill:#5545a5;fill-opacity:1;fill-rule:nonzero;stroke:none;stroke-width:0.1"
         id="path114"
         inkscape:connector-curvature="0" /><path
         d="m 507.783,147.277 h -3.548 c -0.835,0 -1.512,0.677 -1.512,1.512 0,0.835 0.677,1.511 1.512,1.511 h 3.548 c 0.835,0 1.512,-0.676 1.512,-1.511 0,-0.835 -0.677,-1.512 -1.512,-1.512"
         style="fill:#5545a5;fill-opacity:1;fill-rule:nonzero;stroke:none;stroke-width:0.1"
         id="path116"
         inkscape:connector-curvature="0" /><path
         d="m 459.423,149.359 h -7.224 v 31.314 c 0,1.994 1.617,3.611 3.611,3.611 1.995,0 3.613,-1.617 3.613,-3.611 v -31.314"
         style="fill:#5545a5;fill-opacity:1;fill-rule:nonzero;stroke:none;stroke-width:0.1"
         id="path118"
         inkscape:connector-curvature="0" /><path
         d="m 464.095,149.359 c 0,-4.575 -3.71,-8.284 -8.285,-8.284 -4.575,0 -8.284,3.709 -8.284,8.284 0,4.576 3.709,8.285 8.284,8.285 4.575,0 8.285,-3.709 8.285,-8.285"
         style="fill:#394084;fill-opacity:1;fill-rule:nonzero;stroke:none;stroke-width:0.1"
         id="path120"
         inkscape:connector-curvature="0" /></g><path
       inkscape:connector-curvature="0"
       id="path122"
       style="fill:#4d41a1;fill-opacity:1;fill-rule:nonzero;stroke:none;stroke-width:0.1"
       d="m 312.87599,131.09938 13.084,-57.695998 c 0.801,-5.5 -1.321,-11.022 -5.53,-14.388 l -39.061,-30.544994 0.722,28.126994 19.51,15.922 -20.232,60.167998 31.507,-1.588"
       inkscape:export-xdpi="96"
       inkscape:export-ydpi="96" /><path
       inkscape:connector-curvature="0"
       id="path124"
       style="fill:#f2578d;fill-opacity:1;fill-rule:nonzero;stroke:none;stroke-width:0.1"
       d="m 272.8453,39.863512 20.5796,5.19684 -4.78716,11.92123 -22.44946,-6.05574 4.41814,-9.55464 2.23888,-1.50769"
       inkscape:export-xdpi="96"
       inkscape:export-ydpi="96" /><g
       id="g1037"
       transform="rotate(-37.601296,297.03688,1320.4142)"
       inkscape:transform-center-x="-10.986123"
       inkscape:transform-center-y="-3.9949537"
       inkscape:export-xdpi="96"
       inkscape:export-ydpi="96"><g
         id="g1029"><path
           inkscape:connector-curvature="0"
           id="path126"
           style="fill:#282544;fill-opacity:1;fill-rule:nonzero;stroke:none;stroke-width:0.1"
           d="m 1049.5144,302.34206 c 0,0 3.178,-11.649 12.328,-10.998 l 3.529,-27.7529 -27.002,34.2399 11.145,4.511" /><path
           inkscape:connector-curvature="0"
           id="path128"
           style="fill:#ffffff;fill-opacity:1;fill-rule:nonzero;stroke:none;stroke-width:0.1"
           d="m 1062.1374,261.04006 -27.002,34.24 3.234,2.551 27.002,-34.2399 -3.234,-2.5511" /></g><path
         d="m 1062.5344,288.43006 c -0.054,0.017 -1.843,0.586 -4.598,0.587 -0.298,0 -0.608,-0.007 -0.927,-0.022 -0.415,-0.019 -0.736,-0.371 -0.717,-0.786 0.02,-0.415 0.372,-0.736 0.787,-0.716 0.295,0.014 0.581,0.02 0.857,0.02 1.273,0 2.321,-0.133 3.044,-0.264 0.361,-0.065 0.642,-0.13 0.828,-0.178 0.093,-0.024 0.163,-0.043 0.208,-0.056 l 0.048,-0.014 0.01,-0.003 c 0.395,-0.127 0.819,0.09 0.946,0.486 0.127,0.395 -0.091,0.819 -0.486,0.946"
         style="fill:#ffffff;fill-opacity:1;fill-rule:nonzero;stroke:none;stroke-width:0.1"
         id="path130"
         inkscape:connector-curvature="0" /><path
         d="m 1063.3154,284.36906 c -0.053,0.016 -1.844,0.586 -4.601,0.586 -0.297,0 -0.605,-0.006 -0.923,-0.021 -0.415,-0.019 -0.736,-0.371 -0.717,-0.786 0.02,-0.415 0.372,-0.736 0.787,-0.717 0.294,0.014 0.579,0.02 0.853,0.02 1.274,0 2.323,-0.132 3.047,-0.263 0.362,-0.066 0.642,-0.131 0.829,-0.178 0.094,-0.024 0.163,-0.044 0.208,-0.057 l 0.049,-0.014 0.01,-0.003 c 0.395,-0.127 0.818,0.091 0.945,0.487 0.127,0.395 -0.091,0.819 -0.487,0.945"
         style="fill:#ffffff;fill-opacity:1;fill-rule:nonzero;stroke:none;stroke-width:0.1"
         id="path132"
         inkscape:connector-curvature="0" /><path
         d="m 1064.0984,280.30606 c -0.054,0.017 -1.845,0.587 -4.603,0.588 -0.296,0 -0.604,-0.007 -0.922,-0.022 -0.415,-0.019 -0.736,-0.371 -0.716,-0.786 0.019,-0.415 0.371,-0.736 0.786,-0.716 0.294,0.013 0.578,0.019 0.852,0.019 1.275,0.001 2.324,-0.132 3.048,-0.263 0.362,-0.066 0.642,-0.131 0.829,-0.179 0.093,-0.024 0.163,-0.043 0.208,-0.056 l 0.049,-0.014 0.01,-0.003 c 0.396,-0.127 0.819,0.09 0.946,0.486 0.127,0.395 -0.09,0.819 -0.486,0.946"
         style="fill:#ffffff;fill-opacity:1;fill-rule:nonzero;stroke:none;stroke-width:0.1"
         id="path134"
         inkscape:connector-curvature="0" /></g><g
       id="g1017"
       transform="matrix(1,0,-0.08644286,1,-928.07159,-277.39139)"
       inkscape:export-xdpi="96"
       inkscape:export-ydpi="96"><g
         id="g1006"><path
           inkscape:connector-curvature="0"
           id="path136"
           style="fill:#f2578d;fill-opacity:1;fill-rule:nonzero;stroke:none;stroke-width:0.1"
           d="m 1244.3066,276.40425 1.904,20.8622 -12.829,0.658 -1.91,-22.9178 h 10.527 l 2.308,1.3976" /><g
           id="g997"
           transform="translate(7.2056,10.73164)"><path
             d="m 1222.615,267.06421 c 0,0 11.115,-4.7179 16.27,2.87 l 23.977,-14.4149 h -43.605 l 3.358,11.5449"
             style="fill:#282544;fill-opacity:1;fill-rule:nonzero;stroke:none;stroke-width:0.1"
             id="path138"
             inkscape:connector-curvature="0" /><path
             d="m 1262.862,251.40131 h -43.605 v 4.118 h 43.605 v -4.118"
             style="fill:#ffffff;fill-opacity:1;fill-rule:nonzero;stroke:none;stroke-width:0.1"
             id="path140"
             inkscape:connector-curvature="0" /><path
             d="m 1241.601,268.67321 c -0.051,-0.0359 -1.956,-1.3238 -3.865,-3.9879 -0.242,-0.3379 -0.164,-0.8078 0.173,-1.0488 0.338,-0.2422 0.808,-0.1652 1.05,0.1727 0.882,1.232 1.765,2.1453 2.422,2.7453 0.328,0.3008 0.599,0.5226 0.786,0.6668 0.093,0.073 0.165,0.1261 0.212,0.1601 l 0.051,0.036 0.011,0.008 c 0.345,0.232 0.436,0.6992 0.204,1.0441 -0.232,0.3442 -0.7,0.436 -1.044,0.2031"
             style="fill:#ffffff;fill-opacity:1;fill-rule:nonzero;stroke:none;stroke-width:0.1"
             id="path142"
             inkscape:connector-curvature="0" /><path
             d="m 1245.275,266.77241 c -0.051,-0.0351 -1.956,-1.3242 -3.865,-3.9882 -0.242,-0.3379 -0.165,-0.8079 0.173,-1.05 0.338,-0.2418 0.808,-0.1637 1.05,0.1742 0.882,1.232 1.765,2.1449 2.421,2.7461 0.329,0.3 0.6,0.5218 0.787,0.6668 0.093,0.0718 0.165,0.125 0.212,0.159 l 0.051,0.0371 0.011,0.008 c 0.345,0.232 0.436,0.6992 0.204,1.0441 -0.233,0.3442 -0.7,0.4352 -1.044,0.2031"
             style="fill:#ffffff;fill-opacity:1;fill-rule:nonzero;stroke:none;stroke-width:0.1"
             id="path144"
             inkscape:connector-curvature="0" /><path
             d="m 1248.949,264.87131 c -0.051,-0.0348 -1.956,-1.3239 -3.866,-3.9879 -0.241,-0.3379 -0.164,-0.8071 0.174,-1.0492 0.338,-0.2418 0.807,-0.1637 1.049,0.173 0.883,1.232 1.766,2.1453 2.422,2.7461 0.328,0.3 0.6,0.5219 0.786,0.6672 0.094,0.0719 0.165,0.125 0.212,0.159 l 0.052,0.0359 0.011,0.008 c 0.344,0.2321 0.436,0.7 0.204,1.0442 -0.233,0.3449 -0.7,0.4359 -1.044,0.2039"
             style="fill:#ffffff;fill-opacity:1;fill-rule:nonzero;stroke:none;stroke-width:0.1"
             id="path146"
             inkscape:connector-curvature="0" /></g></g><path
         d="m 1234.7666,418.10845 -5.885,-121.684 h 22.323 l 16.258,121.287 -32.696,0.397"
         style="fill:#5645a5;fill-opacity:1;fill-rule:nonzero;stroke:none;stroke-width:0.1"
         id="path148"
         inkscape:connector-curvature="0" /></g><path
       inkscape:connector-curvature="0"
       id="path168"
       style="fill:#f1ba27;fill-opacity:1;fill-rule:nonzero;stroke:none;stroke-width:0.06830506"
       d="m 301.92856,225.86936 22.33471,19.75891 -21.21863,20.7982 -22.3347,-19.7589 21.21862,-20.79821"
       inkscape:export-xdpi="96"
       inkscape:export-ydpi="96" /><path
       inkscape:connector-curvature="0"
       id="path170"
       style="fill:#f1ba27;fill-opacity:1;fill-rule:nonzero;stroke:none;stroke-width:0.1"
       d="m 241.53814,272.32586 h 43.524 v 43.523 h -43.524 v -43.523"
       inkscape:export-xdpi="96"
       inkscape:export-ydpi="96" /><g
       id="g1060"
       transform="matrix(1,0,-0.33299692,1,-133.33166,-97.09794)"
       inkscape:export-xdpi="96"
       inkscape:export-ydpi="96"><path
         d="m 475.30684,202.592 c 0,0 4.325,-0.348 3.619,4.595 -0.707,4.944 -4.353,10.938 -13.835,9.596 l 10.216,-14.191"
         style="fill:#f2578d;fill-opacity:1;fill-rule:nonzero;stroke:none;stroke-width:0.1"
         id="path166"
         inkscape:connector-curvature="0" /><path
         d="m 457.86684,205.428 c -1.141,5.131 2.094,10.215 7.224,11.355 5.131,1.141 10.215,-2.094 11.355,-7.224 1.141,-5.131 -2.093,-10.215 -7.224,-11.356 -5.131,-1.141 -10.215,2.094 -11.355,7.225"
         style="fill:#f2578d;fill-opacity:1;fill-rule:nonzero;stroke:none;stroke-width:0.1"
         id="path172"
         inkscape:connector-curvature="0" /><path
         d="m 476.44684,252.683 -0.427,-39.037 -17.101,0.803 -0.456,37.934 c -0.368,5.783 4.744,10.403 10.46,9.453 4.445,-0.737 7.66,-4.649 7.524,-9.153"
         style="fill:#f1ba27;fill-opacity:1;fill-rule:nonzero;stroke:none;stroke-width:0.1"
         id="path174"
         inkscape:connector-curvature="0" /><path
         d="m 498.40984,269.029 -23.591,-23.024 c -3.85,-3.367 -9.649,-3.182 -13.277,0.424 -3.805,3.781 -3.835,9.927 -0.069,13.747 l 22.144,24.559 c 3.598,3.65 9.267,4.266 13.566,1.475 6.009,-3.902 6.62,-12.466 1.227,-17.181"
         style="fill:#f1ba27;fill-opacity:1;fill-rule:nonzero;stroke:none;stroke-width:0.1"
         id="path176"
         inkscape:connector-curvature="0" /><path
         d="m 483.07084,254.059 9.743,9.508 -9.738,-25.752 z"
         style="fill:#e1a822;fill-opacity:1;fill-rule:nonzero;stroke:none;stroke-width:0.1"
         id="path180"
         inkscape:connector-curvature="0" /></g><g
       id="g1043"
       transform="matrix(1,0,-0.24599224,1,-158.33877,-92.696618)"
       inkscape:export-xdpi="96"
       inkscape:export-ydpi="96"><path
         d="m 526.26684,223.796 v 0 l -13.529,-21.209 -2.827,21.744 16.356,-0.535"
         style="fill:#5645a5;fill-opacity:1;fill-rule:nonzero;stroke:none;stroke-width:0.1"
         id="path150"
         inkscape:connector-curvature="0" /><path
         d="m 524.73584,285.74 -33.545,2.206 c -3.025,0.199 -8.418,-5.294 -8.101,-8.308 l -0.019,-54.429 43.196,-1.413 4.387,55.248 c 0.201,3.478 -2.441,6.468 -5.918,6.696"
         style="fill:#f1ba27;fill-opacity:1;fill-rule:nonzero;stroke:none;stroke-width:0.1"
         id="path178"
         inkscape:connector-curvature="0" /><path
         d="m 516.68984,297.493 -0.206,-10.958 c -0.063,-3.849 -2.395,-5.859 -6.063,-5.753 -3.132,0.091 -6.543,1.674 -6.342,5.064 l 1.126,17.227 11.485,-5.58"
         style="fill:#f2578d;fill-opacity:1;fill-rule:nonzero;stroke:none;stroke-width:0.1"
         id="path184"
         inkscape:connector-curvature="0" /><path
         d="m 499.83884,287.377 20.078,-1.32 c 0,0 0.635,-6.92 -8.294,-6.443 -10.048,0.537 -11.784,7.763 -11.784,7.763"
         style="fill:#f2578d;fill-opacity:1;fill-rule:nonzero;stroke:none;stroke-width:0.1"
         id="path208"
         inkscape:connector-curvature="0" /></g><path
       inkscape:connector-curvature="0"
       id="path186"
       style="fill:#2d2429;fill-opacity:1;fill-rule:nonzero;stroke:none;stroke-width:0.09654989"
       d="m 275.1316,194.88339 c 0,0 8.33469,-0.586 10.74254,9.517 0.7588,3.182 -10.8861,-1.107 -10.8861,-1.107 l 0.14356,-8.41"
       inkscape:export-xdpi="96"
       inkscape:export-ydpi="96" /><path
       inkscape:connector-curvature="0"
       id="path210"
       style="fill:#f2578d;fill-opacity:1;fill-rule:nonzero;stroke:none;stroke-width:0.1"
       d="M 18.820684,82.96194 -2.9231153,85.017086 0.07485432,97.890284 23.853052,95.25805 20.860151,84.848243 18.820684,82.96194"
       inkscape:export-xdpi="96"
       inkscape:export-ydpi="96" /><g
       id="g1094"
       transform="rotate(38.43687,96.920272,184.87504)"
       inkscape:export-xdpi="96"
       inkscape:export-ydpi="96"><path
         d="m -21.217271,167.63744 c 0,0 -2.717,-12.123 -12.154,-11.885 l -2.32,-28.691 26.1409998,36.464 -11.6669998,4.112"
         style="fill:#282544;fill-opacity:1;fill-rule:nonzero;stroke:none;stroke-width:0.1"
         id="path212"
         inkscape:connector-curvature="0" /><path
         d="m -32.247271,124.59154 26.1419998,36.4639 -3.445,2.47 -26.1409998,-36.464 3.444,-2.4699"
         style="fill:#ffffff;fill-opacity:1;fill-rule:nonzero;stroke:none;stroke-width:0.1"
         id="path214"
         inkscape:connector-curvature="0" /><path
         d="m -33.405271,151.27544 0.013,0.005 c 0.187,0.067 2.17,0.739 5.087,0.738 v 0.001 c 0.428,-0.007 0.779,0.334 0.786,0.762 0.006,0.427 -0.335,0.779 -0.762,0.785 h -0.024 c -3.365,-0.001 -5.579,-0.819 -5.639,-0.84 -0.401,-0.149 -0.605,-0.595 -0.456,-0.995 0.149,-0.401 0.594,-0.605 0.995,-0.456"
         style="fill:#ffffff;fill-opacity:1;fill-rule:nonzero;stroke:none;stroke-width:0.1"
         id="path216"
         inkscape:connector-curvature="0" /><path
         d="m -34.017271,147.06344 0.013,0.005 c 0.187,0.067 2.171,0.74 5.093,0.74 h 0.003 v 0.659 l -0.019,-0.659 h 0.019 v 0.659 l -0.019,-0.659 c 0.427,-0.012 0.783,0.325 0.795,0.752 0.012,0.427 -0.324,0.783 -0.752,0.795 h -0.024 -0.003 c -3.37,-10e-4 -5.586,-0.82 -5.646,-0.841 -0.4,-0.149 -0.604,-0.595 -0.455,-0.995 0.149,-0.401 0.594,-0.605 0.995,-0.456"
         style="fill:#ffffff;fill-opacity:1;fill-rule:nonzero;stroke:none;stroke-width:0.1"
         id="path218"
         inkscape:connector-curvature="0" /><path
         d="m -34.630271,142.85144 0.014,0.005 c 0.187,0.067 2.171,0.74 5.092,0.74 h 0.003 v 0.659 l -0.018,-0.659 h 0.018 v 0.659 l -0.018,-0.659 c 0.427,-0.012 0.783,0.325 0.795,0.752 0.012,0.427 -0.325,0.783 -0.752,0.795 h -0.025 -0.003 c -3.369,-0.001 -5.585,-0.82 -5.645,-0.841 -0.401,-0.149 -0.605,-0.595 -0.456,-0.995 0.149,-0.401 0.595,-0.605 0.995,-0.456"
         style="fill:#ffffff;fill-opacity:1;fill-rule:nonzero;stroke:none;stroke-width:0.1"
         id="path220"
         inkscape:connector-curvature="0" /></g><path
       inkscape:connector-curvature="0"
       id="path222"
       style="fill:#373c79;fill-opacity:1;fill-rule:nonzero;stroke:none;stroke-width:0.08473813"
       d="m 6.8741783,154.08751 c 0,0 -36.6408673,-34.65908 -43.2174603,-41.49209 -6.577086,-6.83373 -19.732256,-20.501185 -15.10397,-25.422016 4.628778,-4.920111 50.041463,-11.952959 50.041463,-11.952959 l -3.6359705,19.860201 5.11661382,2.809638 6.79932398,56.197226"
       sodipodi:nodetypes="ccccccc"
       inkscape:export-xdpi="96"
       inkscape:export-ydpi="96" /><path
       inkscape:connector-curvature="0"
       id="path224"
       style="fill:#f2578d;fill-opacity:1;fill-rule:nonzero;stroke:none;stroke-width:0.1"
       d="m 1.2275117,-3.505345 -4.0340001,21.4651 13.2000004,0.676 4.04,-23.5798 H 3.6025116 l -2.3749999,1.4387"
       inkscape:export-xdpi="96"
       inkscape:export-ydpi="96" /><g
       id="g1087"
       transform="translate(55.751766,-122.52908)"
       inkscape:export-xdpi="96"
       inkscape:export-ydpi="96"><path
         d="m -39.822271,125.49744 c 0,0 -11.436,-4.8539 -16.74,2.9531 l -24.67,-14.8313 h 44.866 l -3.456,11.8782"
         style="fill:#282544;fill-opacity:1;fill-rule:nonzero;stroke:none;stroke-width:0.1"
         id="path226"
         inkscape:connector-curvature="0" /><path
         d="m -81.232271,109.38254 h 44.866 v 4.2367 h -44.866 v -4.2367"
         style="fill:#ffffff;fill-opacity:1;fill-rule:nonzero;stroke:none;stroke-width:0.1"
         id="path228"
         inkscape:connector-curvature="0" /><path
         d="m -60.221271,125.86924 0.011,-0.008 c 0.164,-0.1129 1.871,-1.3351 3.572,-3.7129 0.249,-0.3472 0.732,-0.4269 1.08,-0.1781 0.347,0.2488 0.427,0.732 0.179,1.0789 -1.965,2.7422 -3.925,4.068 -3.978,4.1039 -0.354,0.2391 -0.835,0.1453 -1.074,-0.2097 -0.239,-0.3539 -0.145,-0.8352 0.21,-1.0743"
         style="fill:#ffffff;fill-opacity:1;fill-rule:nonzero;stroke:none;stroke-width:0.1"
         id="path230"
         inkscape:connector-curvature="0" /><path
         d="m -64.001271,123.91344 0.012,-0.008 c 0.164,-0.1133 1.869,-1.3352 3.571,-3.7133 0.249,-0.3469 0.732,-0.427 1.08,-0.1777 0.347,0.248 0.427,0.732 0.178,1.0789 -1.964,2.7418 -3.923,4.0679 -3.976,4.1039 -0.354,0.239 -0.835,0.1449 -1.074,-0.2098 -0.239,-0.3543 -0.145,-0.8352 0.209,-1.0742"
         style="fill:#ffffff;fill-opacity:1;fill-rule:nonzero;stroke:none;stroke-width:0.1"
         id="path232"
         inkscape:connector-curvature="0" /><path
         d="m -67.781271,121.95754 0.012,-0.008 c 0.163,-0.1129 1.869,-1.3347 3.572,-3.7129 0.249,-0.3468 0.732,-0.4269 1.079,-0.1781 0.348,0.2492 0.428,0.732 0.179,1.0793 -1.966,2.7418 -3.925,4.0668 -3.977,4.1039 -0.355,0.2391 -0.835,0.1449 -1.074,-0.2101 -0.239,-0.354 -0.145,-0.8348 0.209,-1.0739"
         style="fill:#ffffff;fill-opacity:1;fill-rule:nonzero;stroke:none;stroke-width:0.1"
         id="path234"
         inkscape:connector-curvature="0" /></g><path
       inkscape:connector-curvature="0"
       id="path236"
       style="fill:#394084;fill-opacity:1;fill-rule:nonzero;stroke:none;stroke-width:0.1"
       d="m 4.6502984,151.56664 -11.33384,-72.815 c -0.40651,-2.612 -0.5586,-5.221 -0.45431,-7.791 l 3.06714,-56.158 H 18.567293 l 2.425144,63.333 c 1.874781,11.648997 7.539236,24.694 10.946793,38.899 0,0 8.073933,26.351 -2.981292,34.399 l -24.3076396,0.133"
       inkscape:export-xdpi="96"
       inkscape:export-ydpi="96" /><path
       inkscape:connector-curvature="0"
       id="path238"
       style="fill:#f2578d;fill-opacity:1;fill-rule:nonzero;stroke:none;stroke-width:0.1"
       d="m -17.614414,157.41096 -22.472013,-32.37761 5.88284,-5.98739 27.635752,30.06498 c 3.735457,5.23278 0.319758,12.53852 -6.090586,13.0263 -2.946225,0.22419 -3.293676,-2.28458 -4.955993,-4.72628"
       inkscape:export-xdpi="96"
       inkscape:export-ydpi="96" /><path
       inkscape:connector-curvature="0"
       id="path242"
       style="fill:#f1ba27;fill-opacity:1;fill-rule:nonzero;stroke:none;stroke-width:0.1"
       d="m 293.7774,294.48444 17.892,40.877 40.876,-17.891 -17.891,-40.877 -40.877,17.891"
       inkscape:export-xdpi="96"
       inkscape:export-ydpi="96" /><g
       id="g1077"
       transform="matrix(0.6424221,0.76635099,0.76635099,-0.6424221,-759.81686,-111.32504)"
       inkscape:export-xdpi="96"
       inkscape:export-ydpi="96"><path
         d="m 642.42923,412.60028 c -0.654,0.701 -1.698,1.027 -2.586,0.807 -1.209,-0.3 -1.691,-1.483 -1.042,-2.554 l 0.532,-0.877 c -1.188,-0.455 -3.639,-0.57 -8.126,3.962 -0.754,0.762 -1.995,0.943 -2.771,0.402 -0.606,-0.421 -0.749,-1.158 -0.422,-1.823 l 0.054,-0.091 c -0.624,0.204 -1.305,0.154 -1.798,-0.19 -0.606,-0.421 -0.749,-1.158 -0.423,-1.823 l 0.155,-0.258 c -0.307,-0.031 -0.6,-0.122 -0.844,-0.292 -0.606,-0.422 -0.749,-1.158 -0.423,-1.824 0.092,-0.186 0.22,-0.367 0.385,-0.533 l 0.176,-0.172 -0.082,-0.045 c -0.606,-0.421 -0.749,-1.158 -0.423,-1.824 0.092,-0.186 0.22,-0.366 0.385,-0.533 1.239,-1.251 2.466,-2.29 3.671,-3.126 l -0.004,-0.001 0.058,-0.037 c 0.569,-0.393 1.133,-0.734 1.691,-1.032 2.593,-1.506 8.141,-0.243 12.912,-1.012 l 3.724,7.028 -4.799,5.848"
         style="fill:#f2578d;fill-opacity:1;fill-rule:nonzero;stroke:none;stroke-width:0.1"
         id="path240"
         inkscape:connector-curvature="0" /><path
         d="m 643.03923,411.85728 -3.627,4.228 c -0.588,0.685 -1.649,0.687 -2.24,0.003 -0.39,-0.454 -0.469,-1.099 -0.198,-1.633 l 1.827,-3.602 c 0,0 -1.562,-4.9 2.16,-9.148 l 2.078,10.152"
         style="fill:#f2578d;fill-opacity:1;fill-rule:nonzero;stroke:none;stroke-width:0.1"
         id="path244"
         inkscape:connector-curvature="0" /></g><path
       inkscape:connector-curvature="0"
       id="path246"
       style="fill:#f2578d;fill-opacity:1;fill-rule:nonzero;stroke:none;stroke-width:0.1"
       d="M 8.0980419,164.89452 -3.1130362,151.79161 c -2.2620641,-2.64455 -5.9413907,-3.58215 -9.1942948,-2.34374 -4.579446,1.74295 -7.528595,3.59645 -5.307083,7.96309 l 11.7146131,17.52448 13.9978428,-10.04092"
       inkscape:export-xdpi="96"
       inkscape:export-ydpi="96" /><path
       inkscape:connector-curvature="0"
       id="path250"
       style="fill:#f2578d;fill-opacity:1;fill-rule:nonzero;stroke:none;stroke-width:0.1"
       d="m 45.079867,166.10897 -13.87661,-43.71191 7.14616,-2.96032 c 0,0 16.10042,30.56922 19.81536,42.2351 1.95124,6.12589 -3.60953,12.01207 -9.85156,10.47333 -2.86839,-0.70581 -2.41551,-3.19719 -3.23335,-6.0362"
       inkscape:export-xdpi="96"
       inkscape:export-ydpi="96" /><g
       id="g1080"
       transform="rotate(-89.993295,283.39234,607.41531)"
       inkscape:export-xdpi="96"
       inkscape:export-ydpi="96"><path
         d="m 766.27323,350.81528 c 0.232,-0.903 0.972,-1.667 1.833,-1.892 1.173,-0.306 2.135,0.48 2.078,1.698 l -0.047,0.997 c 1.227,-0.165 3.374,-1.206 5.1,-7.165 0.29,-1.002 1.265,-1.733 2.179,-1.633 0.713,0.079 1.179,0.642 1.209,1.362 l -0.004,0.103 c 0.439,-0.465 1.043,-0.739 1.625,-0.675 0.713,0.078 1.178,0.641 1.209,1.361 0.003,0.095 -10e-4,0.193 -0.013,0.292 0.277,-0.116 0.569,-0.174 0.857,-0.142 0.714,0.078 1.179,0.64 1.21,1.361 0.008,0.201 -0.017,0.416 -0.081,0.635 l -0.071,0.228 h 0.092 c 0.713,0.078 1.177,0.641 1.209,1.362 0.008,0.202 -0.018,0.416 -0.081,0.634 -0.476,1.645 -1.041,3.103 -1.682,4.377 h 0.004 l -0.031,0.059 c -0.305,0.6 -0.627,1.153 -0.966,1.667 -1.514,2.493 -6.841,3.995 -10.56,6.871 l -6.449,-4.271 1.38,-7.229"
         style="fill:#f2578d;fill-opacity:1;fill-rule:nonzero;stroke:none;stroke-width:0.1"
         id="path252"
         inkscape:connector-curvature="0" /></g><path
       inkscape:connector-curvature="0"
       id="path254"
       style="fill:#f2578d;fill-opacity:1;fill-rule:nonzero;stroke:none;stroke-width:0.1"
       d="m 42.522298,182.84764 12.962,-11.372 c 2.616,-2.295 3.508,-5.986 2.23,-9.223 -1.801,-4.557 -3.69,-7.484 -8.029,-5.208 l -17.378,11.931 10.215,13.872"
       inkscape:export-xdpi="96"
       inkscape:export-ydpi="96" /><path
       inkscape:connector-curvature="0"
       id="path262"
       style="fill:#f35b8f;fill-opacity:1;fill-rule:nonzero;stroke:none;stroke-width:0.1"
       d="m 13.692258,184.35409 v 0 c 3.374,0.503 4.572,2.763 4.069,6.138 l -3.751,19.34 -10.1789997,-1.63 2.84,-18.65 c 0.503,-3.374 3.6459997,-5.701 7.0209997,-5.198"
       inkscape:export-xdpi="96"
       inkscape:export-ydpi="96" /><path
       inkscape:connector-curvature="0"
       id="path264"
       style="fill:#2e262d;fill-opacity:1;fill-rule:nonzero;stroke:none;stroke-width:0.1"
       d="m 4.1290988,204.20392 c 0,0 4.1152547,-7.13203 12.8662582,-10.63803 l -1.177228,6.28741 -13.4911234,4.41653"
       sodipodi:nodetypes="cccc"
       inkscape:export-xdpi="96"
       inkscape:export-ydpi="96" /><g
       id="g1108"
       transform="translate(75.770569,-122.3638)"
       inkscape:export-xdpi="96"
       inkscape:export-ydpi="96"><g
         id="g1100"><path
           inkscape:connector-curvature="0"
           id="path248"
           style="fill:#4d41a1;fill-opacity:1;fill-rule:nonzero;stroke:none;stroke-width:0.1"
           d="m -58.768271,296.02844 c 0,0 -1.792,-8.843 -12.419,-16.867 l -16.385,15.471 13.259,14.776 15.545,-13.38" /><path
           inkscape:connector-curvature="0"
           id="path256"
           style="fill:#5645a5;fill-opacity:1;fill-rule:nonzero;stroke:none;stroke-width:0.1"
           d="m -54.131271,314.43044 c 0,0 11.096,-0.189 20.883,-9.219 l -8.828,-16.418 -17.357,6.021 5.302,19.616" /><path
           inkscape:connector-curvature="0"
           id="path258"
           style="fill:#5645a5;fill-opacity:1;fill-rule:nonzero;stroke:none;stroke-width:0.1"
           d="m -68.183271,313.45144 c 0,0 -10.774,-2.978 -10.81,-17.424 -0.02,-7.886 7.873,-22.097 7.873,-22.097 l 24.326,-0.133 c 0,0 3.571,9.91 5.71,18.866 2.139,8.956 -4.708,17.469 -13.047,21.767 l -14.052,-0.979" /><path
           inkscape:connector-curvature="0"
           id="path260"
           style="fill:#4d41a1;fill-opacity:1;fill-rule:nonzero;stroke:none;stroke-width:0.1"
           d="m -42.076271,288.79344 -9.546,6.846 7.363,-14.257 z" /></g><path
         d="m -61.026271,315.53244 6.895,-1.102 c 0,0 -7.244,-11.736 -14.374,-8.921 -8.221,3.247 2.68,9.417 2.68,9.417 l 4.799,0.606"
         style="fill:#f35b8f;fill-opacity:1;fill-rule:nonzero;stroke:none;stroke-width:0.1"
         id="path276"
         inkscape:connector-curvature="0" /></g><path
       inkscape:connector-curvature="0"
       id="path266"
       style="fill:#f35b8f;fill-opacity:1;fill-rule:nonzero;stroke:none;stroke-width:0.11485009"
       d="m 11.677988,199.6664 v 0 c -8.3825904,0.602 -11.2997204,5.59644 -10.5913882,11.26944 L 0.10064782,229.6034 14.235635,229.5724 c 5.208945,-0.374 12.376687,-5.612 11.937442,-9.137 l -2.466632,-11.534 c -0.514431,-4.122 -4.980749,-9.741 -12.028457,-9.235"
       sodipodi:nodetypes="cccccccc"
       inkscape:export-xdpi="96"
       inkscape:export-ydpi="96" /><path
       inkscape:connector-curvature="0"
       id="path268"
       style="fill:#dc5b63;fill-opacity:1;fill-rule:nonzero;stroke:none;stroke-width:0.1"
       d="m 19.583074,216.99603 2.438,-6.222 c 0.394,-0.642 -0.148,-1.419 -0.939,-1.344 l -4.189,0.391 2.69,7.175"
       inkscape:export-xdpi="96"
       inkscape:export-ydpi="96" /><path
       inkscape:connector-curvature="0"
       id="path270"
       style="fill:#2d2429;fill-opacity:1;fill-rule:nonzero;stroke:none;stroke-width:0.08311676"
       d="m 23.372839,218.41571 c 0,0 2.102221,-0.7916 1.696023,-1.35643 0,0 -0.289945,-0.37497 -2.108117,0.33902 -1.816898,0.71428 -2.206939,1.00625 -2.095802,1.43195 0.109865,0.42539 1.558616,0.006 2.507905,-0.41449"
       inkscape:export-xdpi="96"
       inkscape:export-ydpi="96" /><path
       inkscape:connector-curvature="0"
       id="path272"
       style="fill:#2d2429;fill-opacity:1;fill-rule:nonzero;stroke:none;stroke-width:0.1"
       d="m 14.56862,217.01091 c -0.079,-0.539 0.282,-1.039 0.804,-1.116 0.523,-0.076 1.009,0.299 1.088,0.838 0.078,0.54 -0.282,1.039 -0.805,1.116 -0.522,0.077 -1.008,-0.298 -1.087,-0.838"
       inkscape:export-xdpi="96"
       inkscape:export-ydpi="96" /><path
       inkscape:connector-curvature="0"
       id="path274"
       style="fill:#2d2429;fill-opacity:1;fill-rule:nonzero;stroke:none;stroke-width:0.1"
       d="m 16.049566,205.35023 c -0.029,0 -0.469,0.002 -1.017,0.262 -0.548,0.257 -1.199,0.789 -1.595,1.792 -0.06,0.153 0.014,0.327 0.168,0.387 0.153,0.061 0.327,-0.013 0.388,-0.167 0.345,-0.862 0.861,-1.263 1.295,-1.472 0.217,-0.103 0.414,-0.155 0.554,-0.18 l 0.161,-0.022 0.039,-0.002 0.007,-0.001 c 0.165,0 0.299,-0.133 0.299,-0.298 0,-0.165 -0.134,-0.299 -0.299,-0.299"
       inkscape:export-xdpi="96"
       inkscape:export-ydpi="96" /><path
       inkscape:connector-curvature="0"
       id="path278"
       style="fill:#2e262d;fill-opacity:1;fill-rule:nonzero;stroke:none;stroke-width:0.1"
       d="m 5.9187524,217.70953 c 5.3819996,1.375 6.1411696,8.01299 6.1411696,8.01299 l 14.113155,-5.28712 c 0,0 6.052472,19.05259 -15.772477,20.40444 -8.5520002,1.342 -14.0150002,-2.793 -16.8990002,-6.927 -2.746,-3.939 -3.016,-9.093 -1.096,-13.494 1.362,-3.121 4.863,-10.9328 8.681,-12.9258 l 1.317,10.5488 c 0,0 -0.959,-0.244 0,0"
       sodipodi:nodetypes="ccccccccc"
       inkscape:export-xdpi="96"
       inkscape:export-ydpi="96" /><path
       inkscape:connector-curvature="0"
       id="path280"
       style="fill:#f35b8f;fill-opacity:1;fill-rule:nonzero;stroke:none;stroke-width:0.1"
       d="m -5.155536,216.61589 c 0.023,-2.53 2.03,-4.572 4.48099999,-4.56 2.45100001,0.012 4.41900001,2.073 4.39600001,4.603 -0.024,2.531 -2.029,4.573 -4.48100001,4.56 -2.45199999,-0.011 -4.41999999,-2.072 -4.39599999,-4.603"
       inkscape:export-xdpi="96"
       inkscape:export-ydpi="96" /><path
       inkscape:connector-curvature="0"
       id="path282"
       style="fill:#2d2429;fill-opacity:1;fill-rule:nonzero;stroke:none;stroke-width:0.1"
       d="m 0.50646399,215.54189 -0.005,0.104 c -0.016,0.248 -0.097,0.892 -0.405,1.439 -0.317,0.546 -0.794,0.994 -1.75099999,1.002 -0.178,0 -0.373,-0.017 -0.588,-0.055 -0.164,-0.028 -0.32,0.081 -0.349,0.245 -0.028,0.164 0.081,0.32 0.245,0.349 0.246,0.043 0.476,0.063 0.692,0.063 0.66799999,0.002 1.20199999,-0.199 1.59699999,-0.507 0.595,-0.462 0.877,-1.125 1.02,-1.66 0.14300001,-0.537 0.14700001,-0.958 0.14700001,-0.974 0.002,-0.167 -0.13200001,-0.303 -0.29900001,-0.304 -0.166,-0.002 -0.302,0.132 -0.304,0.298"
       inkscape:export-xdpi="96"
       inkscape:export-ydpi="96" /><path
       inkscape:connector-curvature="0"
       id="path284"
       style="fill:#2e262d;fill-opacity:1;fill-rule:nonzero;stroke:none;stroke-width:0.1"
       d="m -20.693112,229.91754 c 0.395341,-0.91216 3.095107,-9.22128 3.360921,-10.30226 0.197607,-0.80361 0.509963,-3.38748 0.8972,-4.02071 1.733479,-2.83465 0.460353,-4.39628 1.749662,-5.99668 1.639784,-2.03544 0.559167,16.62508 3.339048,16.15563 6.0359996,-1.019 8.8398639,2.78217 9.8588639,8.81717 1.58806492,-4.96729 1.19028838,7.77954 -4.8447118,8.79854 -6.0340001,1.019 -14.1354741,-1.45801 -15.1554741,-7.49301"
       sodipodi:nodetypes="cssscccc"
       inkscape:export-xdpi="96"
       inkscape:export-ydpi="96" /><path
       inkscape:connector-curvature="0"
       id="path286"
       style="fill:#281f2a;fill-opacity:1;fill-rule:nonzero;stroke:none;stroke-width:0.1"
       d="m -185.55049,-13.756856 h 636.236 v 0.757031 h -636.236 z"
       inkscape:export-xdpi="96"
       inkscape:export-ydpi="96" /><g
       id="g1073"
       transform="matrix(-1,0,0,1,707.13972,-119.84297)"
       inkscape:export-xdpi="96"
       inkscape:export-ydpi="96"><path
         d="m 439.86913,330.35909 c -0.216,-2.525 1.591,-4.749 4.036,-4.969 2.445,-0.219 4.601,1.649 4.816,4.174 0.216,2.524 -1.592,4.748 -4.036,4.968 -2.444,0.22 -4.601,-1.649 -4.816,-4.173"
         style="fill:#dc4881;fill-opacity:1;fill-rule:nonzero;stroke:none;stroke-width:0.1"
         id="path182"
         inkscape:connector-curvature="0" /><path
         d="m 433.19208,316.46009 v 0 c 6.258,-0.131 11.517,4.866 11.798,10.139 l 0.528,11.035 c 0.353,6.609 -4.435,12.31 -10.821,12.883 -6.537,0.588 -13.448,-4.306 -14.024,-11.057 l -0.308,-8.604 c -0.286,-7.746 5.349,-13.724 12.827,-14.396"
         style="fill:#f35b8f;fill-opacity:1;fill-rule:nonzero;stroke:none;stroke-width:0.1"
         id="path188"
         inkscape:connector-curvature="0" /><path
         d="m 438.93213,331.41109 0.267,-3.291 -1.231,-0.025 c -0.165,-0.003 -0.296,-0.139 -0.293,-0.304 0,-0.165 0.14,-0.296 0.305,-0.293 l 1.548,0.031 0.216,0.098 0.076,0.225 -0.292,3.607 c -0.014,0.164 -0.158,0.287 -0.322,0.274 -0.165,-0.014 -0.287,-0.158 -0.274,-0.322"
         style="fill:#2d2429;fill-opacity:1;fill-rule:nonzero;stroke:none;stroke-width:0.1"
         id="path190"
         inkscape:connector-curvature="0" /><path
         d="m 432.44313,338.74209 c 0,0 2.567,0.171 2.574,-0.907 0,0 -0.016,-0.729 -2.255,-0.834 -2.239,-0.105 -2.817,0.075 -3.009,0.763 -0.192,0.689 1.487,0.993 2.69,0.978"
         style="fill:#2d2429;fill-opacity:1;fill-rule:nonzero;stroke:none;stroke-width:0.1"
         id="path192"
         inkscape:connector-curvature="0" /><path
         d="m 443.15413,336.21109 c 0,0 -2.112,0.263 -2.303,-0.746 0,0 -0.113,-0.683 1.737,-0.871 1.85,-0.187 2.457,0.045 2.642,0.595 0.209,0.623 -1.071,0.988 -2.076,1.022"
         style="fill:#2d2429;fill-opacity:1;fill-rule:nonzero;stroke:none;stroke-width:0.1"
         id="path194"
         inkscape:connector-curvature="0" /><path
         d="m 441.53913,332.11009 c -0.03,-0.613 0.426,-1.135 1.02,-1.165 0.593,-0.031 1.099,0.441 1.13,1.054 0.03,0.613 -0.426,1.135 -1.02,1.165 -0.594,0.031 -1.1,-0.441 -1.13,-1.054"
         style="fill:#2d2429;fill-opacity:1;fill-rule:nonzero;stroke:none;stroke-width:0.1"
         id="path196"
         inkscape:connector-curvature="0" /><path
         d="m 432.11813,332.60209 c -0.031,-0.613 0.426,-1.135 1.019,-1.166 0.594,-0.03 1.1,0.442 1.131,1.055 0.03,0.613 -0.427,1.134 -1.02,1.165 -0.594,0.031 -1.1,-0.441 -1.13,-1.054"
         style="fill:#2d2429;fill-opacity:1;fill-rule:nonzero;stroke:none;stroke-width:0.1"
         id="path198"
         inkscape:connector-curvature="0" /><path
         d="m 434.42713,326.14309 c 0.04,-0.102 0.071,-0.13 0.119,-0.193 0.162,-0.195 0.496,-0.507 0.99,-0.786 0.492,-0.277 1.142,-0.514 1.904,-0.514 0.298,0 0.613,0.037 0.939,0.121 0.16,0.041 0.256,0.203 0.215,0.363 -0.041,0.16 -0.204,0.256 -0.364,0.215 -0.277,-0.071 -0.54,-0.101 -0.79,-0.101 -0.727,-10e-4 -1.343,0.259 -1.785,0.541 -0.22,0.14 -0.396,0.285 -0.515,0.4 l -0.133,0.14 -0.027,0.035 -0.01,-0.004 0.01,0.004 h -10e-4 l -0.01,-0.004 0.01,0.004 -0.169,-0.092 0.182,0.061 -0.013,0.031 -0.169,-0.092 0.182,0.061 c -0.053,0.156 -0.222,0.241 -0.378,0.188 -0.157,-0.052 -0.241,-0.221 -0.189,-0.378"
         style="fill:#2d2429;fill-opacity:1;fill-rule:nonzero;stroke:none;stroke-width:0.1"
         id="path200"
         inkscape:connector-curvature="0" /><path
         d="m 443.69013,355.87709 c -2.398,1.032 -8.515,2.165 -9.865,-3.244 -6.088,0.464 -15.775,0.351 -16.748,-4.927 -1.43,-7.754 4.074,-15.439 4.074,-15.439 l 1.549,-0.788 c 0,0 3.932,2.05 2.916,11.326 0,0 14.07,-3.392 20.67,0.178 6.6,3.57 4.603,9.798 -2.596,12.894"
         style="fill:#2d2429;fill-opacity:1;fill-rule:nonzero;stroke:none;stroke-width:0.1"
         id="path202"
         inkscape:connector-curvature="0" /><path
         d="m 415.36613,331.18309 c -0.213,-2.5 1.576,-4.703 3.997,-4.92 2.421,-0.218 4.556,1.633 4.769,4.132 0.213,2.5 -1.576,4.703 -3.997,4.921 -2.421,0.217 -4.556,-1.633 -4.769,-4.133"
         style="fill:#f35b8f;fill-opacity:1;fill-rule:nonzero;stroke:none;stroke-width:0.1"
         id="path204"
         inkscape:connector-curvature="0" /><path
         d="m 421.45013,329.54309 c 10e-4,0.007 0.01,0.093 0.01,0.233 0,0.371 -0.045,1.122 -0.416,1.821 -0.364,0.702 -1.124,1.331 -2.374,1.321 -0.11,0 -0.224,-0.005 -0.342,-0.014 -0.164,-0.013 -0.287,-0.157 -0.274,-0.321 0.013,-0.165 0.157,-0.288 0.321,-0.275 0.103,0.009 0.201,0.013 0.295,0.013 1.057,-0.01 1.542,-0.459 1.847,-1.006 0.298,-0.551 0.347,-1.221 0.345,-1.539 v -0.139 -0.043 c -0.014,-0.165 0.108,-0.309 0.272,-0.323 0.164,-0.014 0.309,0.107 0.323,0.272"
         style="fill:#2d2429;fill-opacity:1;fill-rule:nonzero;stroke:none;stroke-width:0.1"
         id="path206"
         inkscape:connector-curvature="0" /></g><path
       inkscape:connector-curvature="0"
       id="path272-3"
       style="fill:#2d2429;fill-opacity:1;fill-rule:nonzero;stroke:none;stroke-width:0.09999999"
       d="m 21.268445,215.1234 c -0.079,-0.539 0.282,-1.039 0.804,-1.116 0.523,-0.076 1.009,0.299 1.088,0.838 0.078,0.54 -0.282,1.039 -0.805,1.116 -0.522,0.077 -1.008,-0.298 -1.087,-0.838"
       inkscape:export-xdpi="96"
       inkscape:export-ydpi="96" /><path
       inkscape:connector-curvature="0"
       id="path270-6"
       style="fill:#2d2429;fill-opacity:1;fill-rule:nonzero;stroke:none;stroke-width:0.09971958"
       d="m 14.791997,219.87804 c 0,0 3.200014,-0.0447 3.082325,-0.72182 0,0 -0.103673,-0.45637 -2.891781,-0.38964 -2.786703,0.0674 -3.481626,0.21434 -3.638545,0.65864 -0.158319,0.4436 1.958678,0.53373 3.448001,0.45282"
       inkscape:export-xdpi="96"
       inkscape:export-ydpi="96" /></g></svg>